<svg xmlns="http://www.w3.org/2000/svg" xmlns:xlink="http://www.w3.org/1999/xlink"><symbol viewBox="0 0 448 512" id="arrows-left" xmlns="http://www.w3.org/2000/svg"><!--! Font Awesome Pro 6.1.1 by @fontawesome - https://fontawesome.com License - https://fontawesome.com/license (Commercial License) Copyright 2022 Fonticons, Inc.--><path d="M77.25 256l169.4-169.4c12.5-12.5 12.5-32.75 0-45.25s-32.75-12.5-45.25 0l-192 192c-12.5 12.5-12.5 32.75 0 45.25l192 192c6.2 6.3 14.4 9.4 22.6 9.4s16.38-3.125 22.62-9.375c12.5-12.5 12.5-32.75 0-45.25L77.25 256zm192.05 0L438.7 86.6c12.5-12.5 12.5-32.75 0-45.25s-32.75-12.5-45.25 0l-192 192c-12.5 12.5-12.5 32.75 0 45.25l192 192c6.15 6.3 14.35 9.4 22.55 9.4s16.38-3.125 22.62-9.375c12.5-12.5 12.5-32.75 0-45.25L269.3 256z"/></symbol><symbol viewBox="0 0 448 512" id="arrows-right" xmlns="http://www.w3.org/2000/svg"><!--! Font Awesome Pro 6.1.1 by @fontawesome - https://fontawesome.com License - https://fontawesome.com/license (Commercial License) Copyright 2022 Fonticons, Inc.--><path d="M246.6 233.4l-192-192c-12.5-12.5-32.75-12.5-45.25 0s-12.5 32.75 0 45.25L178.8 256 9.4 425.4c-12.5 12.5-12.5 32.75 0 45.25C15.63 476.9 23.81 480 32 480s16.38-3.125 22.62-9.375l192-192C259.1 266.1 259.1 245.9 246.6 233.4zm192 0l-192-192c-12.5-12.5-32.75-12.5-45.25 0s-12.5 32.75 0 45.25L370.8 256 201.4 425.4c-12.5 12.5-12.5 32.75 0 45.25 6.2 6.25 14.4 9.35 22.6 9.35s16.38-3.125 22.62-9.375l192-192C451.1 266.1 451.1 245.9 438.6 233.4z"/></symbol><symbol viewBox="0 0 448 512" id="check" xmlns="http://www.w3.org/2000/svg"><!--! Font Awesome Pro 6.1.1 by @fontawesome - https://fontawesome.com License - https://fontawesome.com/license (Commercial License) Copyright 2022 Fonticons, Inc.--><path d="M438.6 105.4c12.5 12.5 12.5 32.7 0 45.2l-256 256c-12.5 12.5-32.7 12.5-45.2 0L9.372 278.6c-12.496-12.5-12.496-32.7 0-45.2 12.498-12.5 32.758-12.5 45.258 0L159.1 338.7l234.3-233.3c12.5-12.52 32.7-12.52 45.2 0z"/></symbol><symbol viewBox="0 0 576 512" id="spinner" xmlns="http://www.w3.org/2000/svg"><!--! Font Awesome Pro 6.1.1 by @fontawesome - https://fontawesome.com License - https://fontawesome.com/license (Commercial License) Copyright 2022 Fonticons, Inc.--><path d="M256 32c0-17.67 14.3-32 32-32 141.4 0 256 114.6 256 256 0 46.6-12.5 90.4-34.3 128-8.8 15.3-28.4 20.6-44.6 11.7-14.4-8.8-19.6-28.4-10.8-44.6 16.3-27.3 25.7-60.1 25.7-96 0-106-86-192-192-192-17.7 0-32-13.43-32-32v.9z"/><path d="M287.1 64c-106 0-192 85.1-192 192 0 106 86 192 192 192 71 0 132.2-37.5 165.8-93.6l.1.1c-6.9 14.9-1.5 32.8 12.1 41.2 16.2 8.9 35.8 3.6 44.6-11.7.2-.3.4-.6.5-.9C466.1 460.1 383.1 512 288 512 146.6 512 32 397.4 32 256S146.6 0 288 0c-17.7 0-32 14.33-32 32s14.3 32 32 32h-.9z" opacity=".4"/></symbol></svg>