<svg xmlns="http://www.w3.org/2000/svg" xmlns:xlink="http://www.w3.org/1999/xlink"><symbol viewBox="0 0 448 512" id="arrows-left" xmlns="http://www.w3.org/2000/svg"><!--! Font Awesome Pro 6.1.1 by @fontawesome - https://fontawesome.com License - https://fontawesome.com/license (Commercial License) Copyright 2022 Fonticons, Inc.--><path d="M77.25 256l169.4-169.4c12.5-12.5 12.5-32.75 0-45.25s-32.75-12.5-45.25 0l-192 192c-12.5 12.5-12.5 32.75 0 45.25l192 192c6.2 6.3 14.4 9.4 22.6 9.4s16.38-3.125 22.62-9.375c12.5-12.5 12.5-32.75 0-45.25L77.25 256zm192.05 0L438.7 86.6c12.5-12.5 12.5-32.75 0-45.25s-32.75-12.5-45.25 0l-192 192c-12.5 12.5-12.5 32.75 0 45.25l192 192c6.15 6.3 14.35 9.4 22.55 9.4s16.38-3.125 22.62-9.375c12.5-12.5 12.5-32.75 0-45.25L269.3 256z"/></symbol><symbol viewBox="0 0 448 512" id="arrows-right" xmlns="http://www.w3.org/2000/svg"><!--! Font Awesome Pro 6.1.1 by @fontawesome - https://fontawesome.com License - https://fontawesome.com/license (Commercial License) Copyright 2022 Fonticons, Inc.--><path d="M246.6 233.4l-192-192c-12.5-12.5-32.75-12.5-45.25 0s-12.5 32.75 0 45.25L178.8 256 9.4 425.4c-12.5 12.5-12.5 32.75 0 45.25C15.63 476.9 23.81 480 32 480s16.38-3.125 22.62-9.375l192-192C259.1 266.1 259.1 245.9 246.6 233.4zm192 0l-192-192c-12.5-12.5-32.75-12.5-45.25 0s-12.5 32.75 0 45.25L370.8 256 201.4 425.4c-12.5 12.5-12.5 32.75 0 45.25 6.2 6.25 14.4 9.35 22.6 9.35s16.38-3.125 22.62-9.375l192-192C451.1 266.1 451.1 245.9 438.6 233.4z"/></symbol><symbol viewBox="0 0 448 512" id="bars" xmlns="http://www.w3.org/2000/svg"><!--! Font Awesome Pro 6.1.1 by @fontawesome - https://fontawesome.com License - https://fontawesome.com/license (Commercial License) Copyright 2022 Fonticons, Inc.--><path d="M0 96c0-17.67 14.33-32 32-32h384c17.7 0 32 14.33 32 32 0 17.7-14.3 32-32 32H32c-17.67 0-32-14.3-32-32zm0 160c0-17.7 14.33-32 32-32h384c17.7 0 32 14.3 32 32s-14.3 32-32 32H32c-17.67 0-32-14.3-32-32zm416 192H32c-17.67 0-32-14.3-32-32s14.33-32 32-32h384c17.7 0 32 14.3 32 32s-14.3 32-32 32z"/></symbol><symbol viewBox="0 0 448 512" id="check" xmlns="http://www.w3.org/2000/svg"><!--! Font Awesome Pro 6.1.1 by @fontawesome - https://fontawesome.com License - https://fontawesome.com/license (Commercial License) Copyright 2022 Fonticons, Inc.--><path d="M438.6 105.4c12.5 12.5 12.5 32.7 0 45.2l-256 256c-12.5 12.5-32.7 12.5-45.2 0L9.372 278.6c-12.496-12.5-12.496-32.7 0-45.2 12.498-12.5 32.758-12.5 45.258 0L159.1 338.7l234.3-233.3c12.5-12.52 32.7-12.52 45.2 0z"/></symbol><symbol viewBox="0 0 512 512" id="moon" xmlns="http://www.w3.org/2000/svg"><!--! Font Awesome Pro 6.1.1 by @fontawesome - https://fontawesome.com License - https://fontawesome.com/license (Commercial License) Copyright 2022 Fonticons, Inc.--><path d="M32 256C32 132.2 132.3 32 255.8 32c11.36 0 29.7 1.668 40.9 3.746 9.616 1.777 11.75 14.63 3.279 19.44C245 86.5 211.2 144.6 211.2 207.8c0 109.7 99.71 193 208.3 172.3 9.561-1.805 16.28 9.324 10.11 16.95C387.9 448.6 324.8 480 255.8 480 132.1 480 32 379.6 32 256z"/></symbol><symbol viewBox="0 0 576 512" id="spinner" xmlns="http://www.w3.org/2000/svg"><!--! Font Awesome Pro 6.1.1 by @fontawesome - https://fontawesome.com License - https://fontawesome.com/license (Commercial License) Copyright 2022 Fonticons, Inc.--><path d="M256 32c0-17.67 14.3-32 32-32 141.4 0 256 114.6 256 256 0 46.6-12.5 90.4-34.3 128-8.8 15.3-28.4 20.6-44.6 11.7-14.4-8.8-19.6-28.4-10.8-44.6 16.3-27.3 25.7-60.1 25.7-96 0-106-86-192-192-192-17.7 0-32-13.43-32-32v.9z"/><path d="M287.1 64c-106 0-192 85.1-192 192 0 106 86 192 192 192 71 0 132.2-37.5 165.8-93.6l.1.1c-6.9 14.9-1.5 32.8 12.1 41.2 16.2 8.9 35.8 3.6 44.6-11.7.2-.3.4-.6.5-.9C466.1 460.1 383.1 512 288 512 146.6 512 32 397.4 32 256S146.6 0 288 0c-17.7 0-32 14.33-32 32s14.3 32 32 32h-.9z" opacity=".4"/></symbol><symbol viewBox="0 0 512 512" id="sun" xmlns="http://www.w3.org/2000/svg"><!--! Font Awesome Pro 6.1.1 by @fontawesome - https://fontawesome.com License - https://fontawesome.com/license (Commercial License) Copyright 2022 Fonticons, Inc.--><path d="M120.2 154.2c4.672 4.688 10.83 7.031 16.97 7.031s12.33-2.331 17.03-7.031c9.375-9.375 9.375-24.56 0-33.93l-45.3-45.3c-9.344-9.375-24.56-9.375-33.94 0s-9.375 24.56 0 33.94l45.24 45.29zM256 112c13.25 0 24-10.75 24-24V24c0-13.25-10.7-24-24-24s-24 10.75-24 24v64c0 13.3 10.8 24 24 24zM112 256c0-13.25-10.75-24-24-24H24c-13.25 0-24 10.8-24 24s10.75 24 24 24h64c13.3 0 24-10.7 24-24zm262.8-94.8c6.141 0 12.3-2.344 16.97-7.031l45.25-45.28c9.375-9.375 9.375-24.56 0-33.94s-24.59-9.375-33.94 0l-45.25 45.28c-9.375 9.375-9.375 24.56 0 33.93 4.67 4.741 10.87 7.041 16.97 7.041zM256 400c-13.25 0-24 10.75-24 24v64c0 13.3 10.8 24 24 24s24-10.75 24-24v-64c0-13.2-10.7-24-24-24zm-135.8-42.2l-45.25 45.28c-9.375 9.375-9.375 24.56 0 33.94 4.688 4.688 10.83 7.031 16.97 7.031s12.3-2.344 16.97-7.031l45.25-45.28c9.375-9.375 9.375-24.56 0-33.93s-24.54-9.41-33.94-.01zM488 232h-64c-13.25 0-24 10.75-24 24s10.75 24 24 24h64c13.3 0 24-10.7 24-24s-10.7-24-24-24zm-96.2 125.8c-9.344-9.375-24.56-9.372-33.94.003s-9.375 24.56 0 33.93l45.25 45.28c4.672 4.688 10.83 7.031 16.97 7.031s12.28-2.344 16.97-7.03c9.375-9.376 9.375-24.56 0-33.94L391.8 357.8zM256 144c-61.9 0-112 50.1-112 112 0 61.86 50.14 112 112 112s112-50.14 112-112c0-61.9-50.1-112-112-112z"/></symbol></svg>